<?xml version="1.0" encoding="utf-8"?>
<!-- Generator: Adobe Illustrator 16.0.0, SVG Export Plug-In . SVG Version: 6.00 Build 0)  -->
<!DOCTYPE svg PUBLIC "-//W3C//DTD SVG 1.1//EN" "http://www.w3.org/Graphics/SVG/1.1/DTD/svg11.dtd">
<svg version="1.1" id="Layer_1" xmlns="http://www.w3.org/2000/svg" xmlns:xlink="http://www.w3.org/1999/xlink" x="0px" y="0px"
	 width="200px" height="200px" viewBox="0 0 200 200" enable-background="new 0 0 200 200" xml:space="preserve">
<polygon opacity="0.9" fill="#8DF7A9" points="89.25,100.444 78,89.194 55.694,111.5 78,133.806 89.25,122.556 78.194,111.5 "/>
<polygon opacity="0.9" fill="#8247F4" points="144.806,111.5 122.5,89.194 111.5,100.194 122.806,111.5 111.5,122.806 
	122.5,133.806 "/>
<g>
	
		<rect x="92.597" y="92.364" transform="matrix(0.7071 0.7071 -0.7071 0.7071 100.3356 -41.593)" opacity="0.9" fill="red" width="15.556" height="15.91"/>
	
		<rect x="92.42" y="114.902" transform="matrix(-0.7071 -0.7071 0.7071 -0.7071 84.6025 280.4048)" opacity="0.9" fill="#60D8F4" width="15.91" height="15.556"/>
	<polygon fill="#66F9F1" points="100.194,111.5 100.25,111.444 89.25,100.444 78.194,111.5 89.25,122.556 100.25,111.556 	"/>
	<polygon fill="#5FBFF8" points="111.5,100.194 100.25,111.444 100.306,111.5 100.25,111.556 111.5,122.806 122.806,111.5 	"/>
	
		<rect x="100.211" y="111.461" transform="matrix(-0.7071 0.7071 -0.7071 -0.7071 249.9799 119.455)" opacity="0.9" fill="#8DF7A9" width="0.079" height="0.079"/>
	
		<rect x="100.211" y="111.461" transform="matrix(-0.7071 0.7071 -0.7071 -0.7071 249.9799 119.455)" opacity="0.9" fill="#60D8F4" width="0.079" height="0.079"/>
	
		<rect x="100.211" y="111.461" transform="matrix(-0.7071 0.7071 -0.7071 -0.7071 249.9799 119.455)" opacity="0.9" fill="#8247F4" width="0.079" height="0.079"/>
</g>
</svg>
